# xmcd CD database file
#
# Track frame offsets:
#	150
#	11872
#	38298
#	64413
#	86660
#	96380
#	107787
#	113887
#	123489
#	125335
#	135293
#	137028
#	143225
#	145055
#	154261
#	163616
#	171838
#	186249
#	194943
#	202249
#	209080
#	224754
#	230905
#	247804
#	289351
#	311755
#
# Disc length: 4399 seconds
#
# Revision: 1
# Processed by: cddbd v1.5.2PL0 Copyright (c) Steve Scherf et al.
# Submitted via: CDex 1.51
#
DISCID=a6112d1a
DTITLE=Respighi - Les Pins de Rome - La Boutique fantasque  (Alceo Galliera. Philharmonia Orchestra)
DYEAR=2008
DGENRE=Classique
TTITLE0=Les Pins de Rome - I pini di Villa Borghese  .....  [rec.1957]
TTITLE1=Les Pins de Rome - Pini presso una catacomba
TTITLE2=Les Pins de Rome - I pini del Gianicola
TTITLE3=Les Pins de Rome - I pini della Via Appia
TTITLE4=La Boutique fantasque - Ouverture. Tempo di Marcia  .....  [rec.1959]
TTITLE5=La Boutique fantasque - Allegretto - Même mouvement
TTITLE6=La Boutique fantasque - Vivo
TTITLE7=La Boutique fantasque - Tarantella. Allegro con brio
TTITLE8=La Boutique fantasque - Vivo
TTITLE9=La Boutique fantasque - Mazurka
TTITLE10=La Boutique fantasque - Lento
TTITLE11=La Boutique fantasque - Moderato - Più vivo
TTITLE12=La Boutique fantasque - Vivacissimo
TTITLE13=La Boutique fantasque - Danse cosaque. Allegro marcato - Vivo
TTITLE14=La Boutique fantasque - Allegretto brillante - Vivace
TTITLE15=La Boutique fantasque - ''Cancan'' Allegretto grottesco - Vivacissimo - Poco meno vivo
TTITLE16=La Boutique fantasque - Andantino mosso
TTITLE17=La Boutique fantasque - Valse lente. Andantino moderato
TTITLE18=La Boutique fantasque - Con brio
TTITLE19=La Boutique fantasque - Allegretto moderato
TTITLE20=La Boutique fantasque - Nocturne. Andantino - Allegretto
TTITLE21=La Boutique fantasque - Galop. Vivacissimo
TTITLE22=La Boutique fantasque - Allegro brillante - Prestissimo
TTITLE23=Impressions brésiliennes - Notte tropicale  .....  [rec.1955]
TTITLE24=Impressions brésiliennes - Butantan
TTITLE25=Impressions brésiliennes - Canzona e danza
EXTD=YEAR: 2008
EXTT0=
EXTT1=
EXTT2=
EXTT3=
EXTT4=
EXTT5=
EXTT6=
EXTT7=
EXTT8=
EXTT9=
EXTT10=
EXTT11=
EXTT12=
EXTT13=
EXTT14=
EXTT15=
EXTT16=
EXTT17=
EXTT18=
EXTT19=
EXTT20=
EXTT21=
EXTT22=
EXTT23=
EXTT24=
EXTT25=
PLAYORDER=
